<mxfile host="Electron" modified="2024-04-23T07:23:00.008Z" agent="Mozilla/5.0 (Macintosh; Intel Mac OS X 10_15_7) AppleWebKit/537.36 (KHTML, like Gecko) draw.io/22.1.18 Chrome/120.0.6099.199 Electron/28.1.2 Safari/537.36" etag="TM3U2hyr9eWkLOLWX0Fg" version="22.1.18" type="device">
  <diagram id="MLlP6V_1RyNyVy2EzV0r" name="第 1 页">
    <mxGraphModel dx="1030" dy="552" grid="0" gridSize="10" guides="1" tooltips="1" connect="1" arrows="1" fold="1" page="1" pageScale="1" pageWidth="827" pageHeight="1169" math="0" shadow="0">
      <root>
        <mxCell id="0" />
        <mxCell id="1" parent="0" />
        <mxCell id="n5kHHhObN0qZnFhkV2eE-1" value="" style="rounded=0;whiteSpace=wrap;html=1;strokeColor=none;fillColor=none;" parent="1" vertex="1">
          <mxGeometry x="88" y="260" width="600" height="230" as="geometry" />
        </mxCell>
        <mxCell id="5ISlMRjvqGO4JHw_S9Gw-25" value="" style="rounded=0;whiteSpace=wrap;html=1;fontFamily=Courier New;fontSize=16;fillColor=none;" parent="1" vertex="1">
          <mxGeometry x="527" y="280" width="120" height="190" as="geometry" />
        </mxCell>
        <mxCell id="5ISlMRjvqGO4JHw_S9Gw-17" value="" style="rounded=0;whiteSpace=wrap;html=1;fontFamily=Courier New;fontSize=16;fillColor=none;" parent="1" vertex="1">
          <mxGeometry x="140" y="280" width="120" height="190" as="geometry" />
        </mxCell>
        <mxCell id="5ISlMRjvqGO4JHw_S9Gw-10" value="" style="whiteSpace=wrap;html=1;aspect=fixed;fillColor=#90C9E6;strokeColor=#219EBC;" parent="1" vertex="1">
          <mxGeometry x="175" y="290" width="50" height="50" as="geometry" />
        </mxCell>
        <mxCell id="5ISlMRjvqGO4JHw_S9Gw-12" value="" style="endArrow=classic;html=1;rounded=0;strokeWidth=2;" parent="1" edge="1">
          <mxGeometry width="50" height="50" relative="1" as="geometry">
            <mxPoint x="349" y="379.5" as="sourcePoint" />
            <mxPoint x="419" y="379.5" as="targetPoint" />
          </mxGeometry>
        </mxCell>
        <mxCell id="5ISlMRjvqGO4JHw_S9Gw-13" value="&lt;font face=&quot;Courier New&quot; style=&quot;font-size: 16px;&quot;&gt;&lt;b style=&quot;&quot;&gt;map_partitions()&lt;/b&gt;&lt;/font&gt;" style="text;html=1;strokeColor=none;fillColor=none;align=center;verticalAlign=middle;whiteSpace=wrap;rounded=0;" parent="1" vertex="1">
          <mxGeometry x="369" y="335" width="60" height="30" as="geometry" />
        </mxCell>
        <mxCell id="5ISlMRjvqGO4JHw_S9Gw-19" value="" style="whiteSpace=wrap;html=1;aspect=fixed;fillColor=#90C9E6;strokeColor=#219EBC;" parent="1" vertex="1">
          <mxGeometry x="175" y="350" width="50" height="50" as="geometry" />
        </mxCell>
        <mxCell id="5ISlMRjvqGO4JHw_S9Gw-22" value="" style="whiteSpace=wrap;html=1;aspect=fixed;fillColor=#90C9E6;strokeColor=#219EBC;" parent="1" vertex="1">
          <mxGeometry x="175" y="410" width="50" height="50" as="geometry" />
        </mxCell>
        <mxCell id="KmlR4PIarv3nHcJeVYb1-4" value="" style="whiteSpace=wrap;html=1;aspect=fixed;fillColor=#FFB703;strokeColor=#FB8402;" vertex="1" parent="1">
          <mxGeometry x="562" y="290" width="50" height="50" as="geometry" />
        </mxCell>
        <mxCell id="KmlR4PIarv3nHcJeVYb1-5" value="" style="whiteSpace=wrap;html=1;aspect=fixed;fillColor=#FFB703;strokeColor=#FB8402;" vertex="1" parent="1">
          <mxGeometry x="562" y="350" width="50" height="50" as="geometry" />
        </mxCell>
        <mxCell id="KmlR4PIarv3nHcJeVYb1-6" value="" style="whiteSpace=wrap;html=1;aspect=fixed;fillColor=#FFB703;strokeColor=#FB8402;" vertex="1" parent="1">
          <mxGeometry x="562" y="410" width="50" height="50" as="geometry" />
        </mxCell>
        <mxCell id="KmlR4PIarv3nHcJeVYb1-7" value="&lt;b&gt;pandas&lt;br&gt;DataFrame&lt;/b&gt;" style="text;html=1;strokeColor=none;fillColor=none;align=center;verticalAlign=middle;whiteSpace=wrap;rounded=0;" vertex="1" parent="1">
          <mxGeometry x="354" y="264" width="75" height="30" as="geometry" />
        </mxCell>
        <mxCell id="KmlR4PIarv3nHcJeVYb1-8" value="" style="endArrow=classic;html=1;rounded=0;exitX=0;exitY=0.75;exitDx=0;exitDy=0;entryX=1;entryY=0.5;entryDx=0;entryDy=0;dashed=1;" edge="1" parent="1" source="KmlR4PIarv3nHcJeVYb1-7" target="5ISlMRjvqGO4JHw_S9Gw-10">
          <mxGeometry width="50" height="50" relative="1" as="geometry">
            <mxPoint x="203" y="270" as="sourcePoint" />
            <mxPoint x="253" y="220" as="targetPoint" />
          </mxGeometry>
        </mxCell>
        <mxCell id="KmlR4PIarv3nHcJeVYb1-9" value="" style="endArrow=classic;html=1;rounded=0;exitX=1;exitY=0.75;exitDx=0;exitDy=0;entryX=0;entryY=0.5;entryDx=0;entryDy=0;dashed=1;" edge="1" parent="1" source="KmlR4PIarv3nHcJeVYb1-7" target="KmlR4PIarv3nHcJeVYb1-4">
          <mxGeometry width="50" height="50" relative="1" as="geometry">
            <mxPoint x="364" y="297" as="sourcePoint" />
            <mxPoint x="235" y="325" as="targetPoint" />
          </mxGeometry>
        </mxCell>
      </root>
    </mxGraphModel>
  </diagram>
</mxfile>
